<?xml version="1.0" standalone="no"?>
<!DOCTYPE svg PUBLIC "-//W3C//DTD SVG 20010904//EN"
 "http://www.w3.org/TR/2001/REC-SVG-20010904/DTD/svg10.dtd">
<svg version="1.0" xmlns="http://www.w3.org/2000/svg"
 width="2135.000000pt" height="2135.000000pt" viewBox="0 0 2135.000000 2135.000000"
 preserveAspectRatio="xMidYMid meet">
<metadata>
Created by potrace 1.14, written by Peter Selinger 2001-2017
</metadata>
<g transform="translate(0.000000,2135.000000) scale(0.100000,-0.100000)"
fill="#000000" stroke="none">
<path d="M2580 21333 c-208 -16 -441 -64 -650 -133 -951 -312 -1673 -1126
-1870 -2106 -53 -269 -50 305 -50 -8419 0 -8797 -4 -8148 55 -8441 83 -409
269 -807 545 -1164 96 -125 349 -375 475 -471 415 -316 847 -497 1360 -571 73
-11 1612 -13 8230 -13 7649 0 8147 1 8252 17 488 75 904 247 1286 531 645 480
1053 1215 1117 2012 8 103 10 2273 8 8190 l-3 8050 -23 137 c-52 315 -132 565
-268 839 -270 538 -701 974 -1232 1243 -297 150 -523 222 -887 284 -93 15
-658 17 -8200 18 -4455 0 -8120 -1 -8145 -3z m16241 -4137 c132 -34 244 -77
384 -145 396 -194 647 -510 729 -917 107 -533 -35 -969 -397 -1225 -119 -84
-238 -137 -516 -229 -371 -123 -611 -230 -861 -385 -371 -231 -693 -564 -893
-925 -186 -337 -328 -992 -411 -1910 -63 -690 -85 -1237 -106 -2645 -10 -652
-18 -807 -61 -1145 -253 -2001 -1273 -3189 -3044 -3545 -351 -70 -670 -103
-1100 -112 -1091 -22 -2016 189 -2715 621 -103 64 -105 65 -130 48 -242 -161
-574 -318 -890 -420 -489 -159 -992 -235 -1625 -249 -1214 -25 -2210 237
-2933 771 -850 628 -1349 1629 -1501 3011 -46 414 -46 409 -46 2685 0 2084 1
2168 19 2235 43 162 111 280 227 391 246 236 642 354 1279 379 287 11 704 -22
928 -75 498 -117 766 -341 859 -719 15 -60 17 -273 23 -2226 7 -2317 5 -2217
56 -2495 104 -569 330 -895 696 -1001 105 -30 321 -37 443 -14 170 32 313 110
429 236 199 215 309 521 373 1039 15 122 17 394 22 2750 l6 2615 28 88 c79
254 228 418 491 543 263 124 575 182 1041 191 504 10 864 -38 1167 -156 150
-59 257 -128 363 -235 104 -105 152 -182 198 -316 l32 -95 6 -2590 c6 -2579 7
-2644 40 -2895 75 -575 265 -941 569 -1099 134 -70 209 -86 405 -86 186 0 253
12 372 65 325 147 529 527 607 1130 25 193 35 467 41 1120 15 1859 140 3223
380 4156 259 1010 874 2034 1646 2741 171 157 292 255 452 364 447 306 927
508 1473 618 192 39 381 62 689 85 28 2 188 2 356 0 285 -3 312 -5 400 -28z"/>
</g>
</svg>
